<svg width="886" height="886" viewBox="0 0 886 886" fill="none" xmlns="http://www.w3.org/2000/svg">
<circle cx="443" cy="443" r="443" fill="white"/>
<path fill-rule="evenodd" clip-rule="evenodd" d="M513.672 181.792C513.672 220.824 481.916 252.584 442.88 252.584C403.843 252.584 372.083 220.823 372.083 181.792C372.083 142.755 403.844 110.995 442.88 111C481.917 111 513.672 142.756 513.672 181.792ZM289.28 366.491C289.28 322.215 356.375 270.745 442.88 270.745C529.387 270.745 596.48 322.215 596.48 366.491C596.48 416.6 522.657 423.507 442.88 423.507C363.103 423.507 289.28 416.6 289.28 366.491ZM698.845 204.886C698.845 238.522 671.48 265.891 637.84 265.891C604.204 265.891 576.835 238.522 576.835 204.886C576.835 171.245 604.2 143.881 637.84 143.881C671.476 143.881 698.845 171.246 698.845 204.886ZM593.955 287.563C610.209 282.224 625.944 281.542 637.84 281.542C712.387 281.542 770.205 325.891 770.205 364.047C770.205 407.224 706.586 413.177 637.841 413.177C631.268 413.177 624.809 413.12 618.507 412.974C615.46 412.912 612.721 411.104 611.455 408.328C610.195 405.563 610.622 402.318 612.559 399.974C612.83 399.65 629.83 378.421 624.393 351.614C619.043 325.245 591.538 301.375 591.262 301.141C589.085 299.271 588.085 296.375 588.642 293.563C589.199 290.75 591.231 288.459 593.955 287.563ZM247.368 146.891C281.009 146.891 308.373 174.257 308.373 207.897C308.373 241.538 281.004 268.907 247.368 268.902C213.732 268.902 186.363 241.537 186.363 207.897C186.363 174.261 213.728 146.896 247.368 146.891ZM247.364 416.201C178.62 416.201 115 410.253 115 367.07C115 328.914 172.818 284.565 247.365 284.565C259.261 284.565 274.995 285.247 291.25 290.586C293.969 291.482 296.005 293.773 296.562 296.586C297.12 299.399 296.12 302.294 293.943 304.164C293.667 304.397 266.161 328.268 260.812 354.637C255.38 381.445 272.38 402.669 272.645 402.997C274.578 405.341 275.01 408.586 273.749 411.352C272.484 414.122 269.744 415.93 266.697 415.997C260.395 416.143 253.942 416.201 247.364 416.201Z" fill="#52C41A"/>
<path fill-rule="evenodd" clip-rule="evenodd" d="M513.672 181.792C513.672 220.824 481.916 252.584 442.88 252.584C403.843 252.584 372.083 220.823 372.083 181.792C372.083 142.755 403.844 110.995 442.88 111C481.917 111 513.672 142.756 513.672 181.792ZM289.28 366.491C289.28 322.215 356.375 270.745 442.88 270.745C529.387 270.745 596.48 322.215 596.48 366.491C596.48 416.6 522.657 423.507 442.88 423.507C363.103 423.507 289.28 416.6 289.28 366.491ZM698.845 204.886C698.845 238.522 671.48 265.891 637.84 265.891C604.204 265.891 576.835 238.522 576.835 204.886C576.835 171.245 604.2 143.881 637.84 143.881C671.476 143.881 698.845 171.246 698.845 204.886ZM593.955 287.563C610.209 282.224 625.944 281.542 637.84 281.542C712.387 281.542 770.205 325.891 770.205 364.047C770.205 407.224 706.586 413.177 637.841 413.177C631.268 413.177 624.809 413.12 618.507 412.974C615.46 412.912 612.721 411.104 611.455 408.328C610.195 405.563 610.622 402.318 612.559 399.974C612.83 399.65 629.83 378.421 624.393 351.614C619.043 325.245 591.538 301.375 591.262 301.141C589.085 299.271 588.085 296.375 588.642 293.563C589.199 290.75 591.231 288.459 593.955 287.563ZM247.368 146.891C281.009 146.891 308.373 174.257 308.373 207.897C308.373 241.538 281.004 268.907 247.368 268.902C213.732 268.902 186.363 241.537 186.363 207.897C186.363 174.261 213.728 146.896 247.368 146.891ZM247.364 416.201C178.62 416.201 115 410.253 115 367.07C115 328.914 172.818 284.565 247.365 284.565C259.261 284.565 274.995 285.247 291.25 290.586C293.969 291.482 296.005 293.773 296.562 296.586C297.12 299.399 296.12 302.294 293.943 304.164C293.667 304.397 266.161 328.268 260.812 354.637C255.38 381.445 272.38 402.669 272.645 402.997C274.578 405.341 275.01 408.586 273.749 411.352C272.484 414.122 269.744 415.93 266.697 415.997C260.395 416.143 253.942 416.201 247.364 416.201Z" fill="#1890FF" fill-opacity="0.2"/>
<path fill-rule="evenodd" clip-rule="evenodd" d="M743.787 472.425C735.589 463.159 723.803 457.846 711.443 457.846H169.109C156.755 457.846 144.969 463.158 136.765 472.425C128.672 481.565 124.875 493.711 126.349 505.747C145.709 663.934 280.669 783.227 440.282 783.227C599.895 783.227 734.855 663.93 754.202 505.747C755.676 493.711 751.88 481.565 743.787 472.425ZM201.544 527.919C202.564 547.143 206.559 566.102 213.413 584.242L217.059 593.899H297.168L293.1 575.711C289.512 559.581 286.944 542.81 285.486 525.851L284.319 512.201H200.726L201.544 527.919ZM261.564 658.325C279.736 678.205 295.939 691.637 314.064 701.887L356.344 725.757L334.803 682.241C328.693 669.918 321.297 654.725 315.464 642.022L311.469 633.314H238.715L261.564 658.325ZM393.064 724.523L422.741 728.737L422.735 633.314H355.975L361.215 652.231C368.7 679.242 378.205 701.684 389.449 718.966L393.064 724.523ZM349.257 593.897H422.741L422.742 512.198H344.283L344.533 527.38C344.841 545.172 345.95 563.068 347.83 580.568L349.257 593.897ZM540.397 512.199H461.955L461.959 593.882H535.429L536.856 580.554C538.736 563.07 539.845 545.174 540.153 527.382L540.397 512.199ZM491.606 724.543L495.236 718.986C506.465 701.787 515.971 679.329 523.481 652.246L528.731 633.319H461.955L461.96 728.757L491.606 724.543ZM570.616 701.893C588.772 691.622 604.96 678.194 623.132 658.33L645.985 633.324H573.215L569.22 642.043C563.403 654.746 555.991 669.928 549.881 682.251L528.34 725.767L570.616 701.893ZM671.273 584.235C678.127 566.106 682.122 547.163 683.143 527.929L683.955 512.204H600.351L599.2 525.871C597.752 542.819 595.19 559.59 591.586 575.704L587.507 593.907L667.612 593.891L671.273 584.235Z" fill="#52C41A"/>
<path fill-rule="evenodd" clip-rule="evenodd" d="M743.787 472.425C735.589 463.159 723.803 457.846 711.443 457.846H169.109C156.755 457.846 144.969 463.158 136.765 472.425C128.672 481.565 124.875 493.711 126.349 505.747C145.709 663.934 280.669 783.227 440.282 783.227C599.895 783.227 734.855 663.93 754.202 505.747C755.676 493.711 751.88 481.565 743.787 472.425ZM201.544 527.919C202.564 547.143 206.559 566.102 213.413 584.242L217.059 593.899H297.168L293.1 575.711C289.512 559.581 286.944 542.81 285.486 525.851L284.319 512.201H200.726L201.544 527.919ZM261.564 658.325C279.736 678.205 295.939 691.637 314.064 701.887L356.344 725.757L334.803 682.241C328.693 669.918 321.297 654.725 315.464 642.022L311.469 633.314H238.715L261.564 658.325ZM393.064 724.523L422.741 728.737L422.735 633.314H355.975L361.215 652.231C368.7 679.242 378.205 701.684 389.449 718.966L393.064 724.523ZM349.257 593.897H422.741L422.742 512.198H344.283L344.533 527.38C344.841 545.172 345.95 563.068 347.83 580.568L349.257 593.897ZM540.397 512.199H461.955L461.959 593.882H535.429L536.856 580.554C538.736 563.07 539.845 545.174 540.153 527.382L540.397 512.199ZM491.606 724.543L495.236 718.986C506.465 701.787 515.971 679.329 523.481 652.246L528.731 633.319H461.955L461.96 728.757L491.606 724.543ZM570.616 701.893C588.772 691.622 604.96 678.194 623.132 658.33L645.985 633.324H573.215L569.22 642.043C563.403 654.746 555.991 669.928 549.881 682.251L528.34 725.767L570.616 701.893ZM671.273 584.235C678.127 566.106 682.122 547.163 683.143 527.929L683.955 512.204H600.351L599.2 525.871C597.752 542.819 595.19 559.59 591.586 575.704L587.507 593.907L667.612 593.891L671.273 584.235Z" fill="#1890FF"/>
</svg>
